<svg xmlns="http://www.w3.org/2000/svg" width="676" height="600" viewBox="0 0 676 600">
<g fill="rgb(233,240,255)" stroke="rgb(108,132,191)" stroke-width="2" shape-rendering="crispEdges">
<rect x="16" y="80" width="32" height="32" />
<rect x="48" y="80" width="32" height="32" />
<rect x="80" y="80" width="32" height="32" />
<rect x="112" y="48" width="32" height="32" />
<rect x="112" y="80" width="32" height="32" />
<rect x="112" y="112" width="32" height="32" />
<rect x="220" y="16" width="32" height="32" />
<rect x="220" y="48" width="32" height="32" />
<rect x="220" y="80" width="32" height="32" />
<rect x="252" y="80" width="32" height="32" />
<rect x="252" y="112" width="32" height="32" />
<rect x="252" y="144" width="32" height="32" />
<rect x="360" y="80" width="32" height="32" />
<rect x="392" y="80" width="32" height="32" />
<rect x="424" y="48" width="32" height="32" />
<rect x="424" y="80" width="32" height="32" />
<rect x="424" y="112" width="32" height="32" />
<rect x="456" y="112" width="32" height="32" />
<rect x="548" y="64" width="32" height="32" />
<rect x="580" y="32" width="32" height="32" />
<rect x="580" y="64" width="32" height="32" />
<rect x="580" y="96" width="32" height="32" />
<rect x="612" y="96" width="32" height="32" />
<rect x="612" y="128" width="32" height="32" />
<rect x="32" y="236" width="32" height="32" />
<rect x="32" y="268" width="32" height="32" />
<rect x="64" y="268" width="32" height="32" />
<rect x="64" y="300" width="32" height="32" />
<rect x="64" y="332" width="32" height="32" />
<rect x="96" y="332" width="32" height="32" />
<rect x="204" y="268" width="32" height="32" />
<rect x="236" y="236" width="32" height="32" />
<rect x="236" y="268" width="32" height="32" />
<rect x="236" y="300" width="32" height="32" />
<rect x="236" y="332" width="32" height="32" />
<rect x="268" y="236" width="32" height="32" />
<rect x="360" y="252" width="32" height="32" />
<rect x="392" y="252" width="32" height="32" />
<rect x="392" y="284" width="32" height="32" />
<rect x="424" y="284" width="32" height="32" />
<rect x="424" y="316" width="32" height="32" />
<rect x="456" y="316" width="32" height="32" />
<rect x="548" y="268" width="32" height="32" />
<rect x="580" y="236" width="32" height="32" />
<rect x="580" y="268" width="32" height="32" />
<rect x="580" y="300" width="32" height="32" />
<rect x="580" y="332" width="32" height="32" />
<rect x="612" y="332" width="32" height="32" />
<rect x="32" y="440" width="32" height="32" />
<rect x="64" y="440" width="32" height="32" />
<rect x="64" y="472" width="32" height="32" />
<rect x="64" y="504" width="32" height="32" />
<rect x="64" y="536" width="32" height="32" />
<rect x="96" y="536" width="32" height="32" />
<rect x="204" y="472" width="32" height="32" />
<rect x="236" y="440" width="32" height="32" />
<rect x="236" y="472" width="32" height="32" />
<rect x="236" y="504" width="32" height="32" />
<rect x="236" y="536" width="32" height="32" />
<rect x="268" y="472" width="32" height="32" />
<rect x="376" y="472" width="32" height="32" />
<rect x="408" y="440" width="32" height="32" />
<rect x="408" y="472" width="32" height="32" />
<rect x="408" y="504" width="32" height="32" />
<rect x="408" y="536" width="32" height="32" />
<rect x="440" y="504" width="32" height="32" />
</g></svg>